<mxfile host="app.diagrams.net" agent="Mozilla/5.0 (Windows NT 10.0; Win64; x64) AppleWebKit/537.36 (KHTML, like Gecko) Chrome/133.0.0.0 Safari/537.36" version="26.1.0">
  <diagram name="Page-1" id="kg7UmPB3AO2Z5lZnHRCF">
    <mxGraphModel dx="1024" dy="527" grid="1" gridSize="10" guides="1" tooltips="1" connect="1" arrows="1" fold="1" page="1" pageScale="1" pageWidth="850" pageHeight="1100" math="0" shadow="0">
      <root>
        <mxCell id="0" />
        <mxCell id="1" parent="0" />
        <mxCell id="pi5FAZDAwS_kGxlrXNeU-9" value="" style="edgeStyle=orthogonalEdgeStyle;rounded=0;orthogonalLoop=1;jettySize=auto;html=1;" edge="1" parent="1" source="pi5FAZDAwS_kGxlrXNeU-1" target="pi5FAZDAwS_kGxlrXNeU-5">
          <mxGeometry relative="1" as="geometry" />
        </mxCell>
        <mxCell id="pi5FAZDAwS_kGxlrXNeU-1" value="Task" style="swimlane;fontStyle=1;align=center;verticalAlign=top;childLayout=stackLayout;horizontal=1;startSize=26;horizontalStack=0;resizeParent=1;resizeParentMax=0;resizeLast=0;collapsible=1;marginBottom=0;whiteSpace=wrap;html=1;" vertex="1" parent="1">
          <mxGeometry x="340" y="190" width="170" height="170" as="geometry" />
        </mxCell>
        <mxCell id="pi5FAZDAwS_kGxlrXNeU-2" value="- taskID&lt;div&gt;- title&lt;/div&gt;&lt;div&gt;- description&lt;/div&gt;&lt;div&gt;- dueDate&lt;/div&gt;&lt;div&gt;- isCompleted&lt;/div&gt;" style="text;strokeColor=none;fillColor=none;align=left;verticalAlign=top;spacingLeft=4;spacingRight=4;overflow=hidden;rotatable=0;points=[[0,0.5],[1,0.5]];portConstraint=eastwest;whiteSpace=wrap;html=1;" vertex="1" parent="pi5FAZDAwS_kGxlrXNeU-1">
          <mxGeometry y="26" width="170" height="84" as="geometry" />
        </mxCell>
        <mxCell id="pi5FAZDAwS_kGxlrXNeU-3" value="" style="line;strokeWidth=1;fillColor=none;align=left;verticalAlign=middle;spacingTop=-1;spacingLeft=3;spacingRight=3;rotatable=0;labelPosition=right;points=[];portConstraint=eastwest;strokeColor=inherit;" vertex="1" parent="pi5FAZDAwS_kGxlrXNeU-1">
          <mxGeometry y="110" width="170" height="8" as="geometry" />
        </mxCell>
        <mxCell id="pi5FAZDAwS_kGxlrXNeU-4" value="+ editTask()&lt;div&gt;+ markComplete()&lt;/div&gt;&lt;div&gt;+ deleteTask()&lt;/div&gt;" style="text;strokeColor=none;fillColor=none;align=left;verticalAlign=top;spacingLeft=4;spacingRight=4;overflow=hidden;rotatable=0;points=[[0,0.5],[1,0.5]];portConstraint=eastwest;whiteSpace=wrap;html=1;" vertex="1" parent="pi5FAZDAwS_kGxlrXNeU-1">
          <mxGeometry y="118" width="170" height="52" as="geometry" />
        </mxCell>
        <mxCell id="pi5FAZDAwS_kGxlrXNeU-5" value="Task" style="swimlane;fontStyle=1;align=center;verticalAlign=top;childLayout=stackLayout;horizontal=1;startSize=26;horizontalStack=0;resizeParent=1;resizeParentMax=0;resizeLast=0;collapsible=1;marginBottom=0;whiteSpace=wrap;html=1;" vertex="1" parent="1">
          <mxGeometry x="340" y="440" width="170" height="130" as="geometry" />
        </mxCell>
        <mxCell id="pi5FAZDAwS_kGxlrXNeU-6" value="- taskList" style="text;strokeColor=none;fillColor=none;align=left;verticalAlign=top;spacingLeft=4;spacingRight=4;overflow=hidden;rotatable=0;points=[[0,0.5],[1,0.5]];portConstraint=eastwest;whiteSpace=wrap;html=1;" vertex="1" parent="pi5FAZDAwS_kGxlrXNeU-5">
          <mxGeometry y="26" width="170" height="24" as="geometry" />
        </mxCell>
        <mxCell id="pi5FAZDAwS_kGxlrXNeU-7" value="" style="line;strokeWidth=1;fillColor=none;align=left;verticalAlign=middle;spacingTop=-1;spacingLeft=3;spacingRight=3;rotatable=0;labelPosition=right;points=[];portConstraint=eastwest;strokeColor=inherit;" vertex="1" parent="pi5FAZDAwS_kGxlrXNeU-5">
          <mxGeometry y="50" width="170" height="8" as="geometry" />
        </mxCell>
        <mxCell id="pi5FAZDAwS_kGxlrXNeU-8" value="+ addTask()&lt;div&gt;+ removeTask()&lt;/div&gt;&lt;div&gt;+ getTask()&lt;/div&gt;&lt;div&gt;+ findTask()&lt;/div&gt;" style="text;strokeColor=none;fillColor=none;align=left;verticalAlign=top;spacingLeft=4;spacingRight=4;overflow=hidden;rotatable=0;points=[[0,0.5],[1,0.5]];portConstraint=eastwest;whiteSpace=wrap;html=1;" vertex="1" parent="pi5FAZDAwS_kGxlrXNeU-5">
          <mxGeometry y="58" width="170" height="72" as="geometry" />
        </mxCell>
      </root>
    </mxGraphModel>
  </diagram>
</mxfile>
